<svg width="10" height="10" viewBox="0 0 10 10" fill="none" xmlns="http://www.w3.org/2000/svg">
<path fill-rule="evenodd" clip-rule="evenodd" d="M6.0726 5.00575L9.25803 1.82032C9.64855 1.4298 9.47378 0.982313 9.25458 0.763111C9.03538 0.54391 8.58789 0.369138 8.19737 0.759662L5.01194 3.94509L1.82996 0.763111C1.41966 0.352819 0.991947 0.540461 0.769297 0.763111C0.546646 0.985762 0.318234 1.37271 0.769297 1.82377L3.95128 5.00575L0.772746 8.18428C0.382222 8.57481 0.550096 9.02919 0.769297 9.24839C0.988498 9.46759 1.44288 9.63547 1.83341 9.24494L5.01194 6.06641L8.19392 9.24839C8.58282 9.63729 9.03883 9.46414 9.25803 9.24494C9.47723 9.02574 9.64348 8.57663 9.25458 8.18773L6.0726 5.00575Z" fill="#333333"/>
</svg>
