<svg width="180" height="36" viewBox="0 0 180 36" fill="none" xmlns="http://www.w3.org/2000/svg">
<path d="M22.1083 11.8546C22.564 9.41308 22.3687 7.39477 21.5223 5.79966C20.6759 4.20454 19.4715 3.00007 17.9089 2.18624C17.1276 1.82815 16.265 1.53517 15.3209 1.3073C14.4094 1.07942 13.4654 0.949211 12.4888 0.916658C11.5447 0.85155 10.6007 0.884103 9.65664 1.01432C8.71259 1.11198 7.84993 1.32357 7.06865 1.64911C5.50609 2.30017 4.1714 3.29305 3.06459 4.62774C1.99033 5.96242 1.25788 7.4436 0.86724 9.07127C0.4766 10.6989 0.492877 12.3754 0.91607 14.1008C1.37182 15.8261 2.34842 17.4049 3.84587 18.8373C4.30162 19.2279 4.80619 19.5697 5.3596 19.8627C5.91301 20.1557 6.51524 20.3673 7.16631 20.4975C7.84993 20.6277 8.58238 20.7742 9.36366 20.937C10.1449 21.0672 10.8611 21.2788 11.5122 21.5717C12.1958 21.8647 12.7818 22.2554 13.2701 22.7437C13.7584 23.1994 14.0513 23.8179 14.149 24.5992C14.3443 25.7386 14.1164 26.585 13.4654 27.1384C12.8469 27.6918 12.0981 27.9848 11.2192 28.0173C10.3728 28.0173 9.55898 27.7569 8.7777 27.236C8.02897 26.7152 7.62206 25.9339 7.55695 24.8922C6.45014 24.9247 5.21311 24.9085 3.84587 24.8434C2.47863 24.7457 1.22533 24.7783 0.08596 24.941V25.0875V25.234C-0.0117 26.7966 0.265003 28.1964 0.91607 29.4334C1.56714 30.6379 2.44608 31.6633 3.55289 32.5097C4.6597 33.3561 5.91301 34.0234 7.3128 34.5117C8.74515 34.9674 10.1775 35.2116 11.6098 35.2442C12.619 35.2767 13.5956 35.1953 14.5396 35C15.5162 34.7721 16.4115 34.4303 17.2253 33.9746C18.0717 33.5188 18.8204 32.9329 19.4715 32.2167C20.1225 31.5005 20.6434 30.6379 21.034 29.6287C21.4247 28.7823 21.7014 27.9034 21.8641 26.9919C22.0595 26.0478 22.1246 25.1201 22.0595 24.2086C22.0269 23.2971 21.8641 22.4181 21.5712 21.5717C21.2782 20.6928 20.8387 19.879 20.2528 19.1302C19.3087 17.7305 18.088 16.5748 16.5905 15.6633C15.1256 14.7518 13.5305 14.1984 11.8052 14.0031C11.1215 13.9054 10.4868 13.7264 9.90079 13.466C9.31483 13.2055 8.89164 12.6847 8.63121 11.9034C8.59866 11.6755 8.5661 11.4639 8.53355 11.2686C8.53355 11.0407 8.5661 10.8129 8.63121 10.585C8.76142 9.67351 9.18462 9.05499 9.90079 8.72946C10.6495 8.40392 11.4145 8.32254 12.1958 8.48531C12.9771 8.64807 13.6444 9.02244 14.1978 9.6084C14.7512 10.1944 14.9303 10.9268 14.735 11.8057C15.8743 12.1313 17.0951 12.2778 18.3972 12.2452C19.6993 12.1801 20.9201 12.0499 22.0595 11.8546H22.1083ZM40.447 17.8607C40.3168 17.3073 40.1378 16.5585 39.9099 15.6145C39.682 14.6704 39.4379 13.6287 39.1774 12.4894C38.917 11.35 38.6403 10.1618 38.3473 8.92478C38.0869 7.68775 37.8265 6.53211 37.566 5.45785C37.3382 4.35103 37.1103 3.37443 36.8824 2.52805C36.6871 1.64911 36.5406 0.99804 36.4429 0.574847C35.3687 0.672507 34.4897 0.737614 33.8061 0.770167C33.1551 0.770167 32.6179 0.770167 32.1947 0.770167C31.7715 0.770167 31.4297 0.770167 31.1693 0.770167C30.9089 0.770167 30.6647 0.786443 30.4369 0.818996C29.6556 3.42326 28.9394 6.04381 28.2883 8.68063C27.6373 11.3174 27.035 13.8566 26.4816 16.2981C25.9282 18.7396 25.4399 21.0509 25.0167 23.232C24.6261 25.3805 24.2843 27.2849 23.9913 28.9451C23.6983 30.6053 23.4704 31.9563 23.3077 32.998C23.1449 34.0397 23.031 34.6745 22.9659 34.9023C22.9984 34.9349 23.031 34.9512 23.0635 34.9512C25.2772 34.9186 26.9048 34.9349 27.9465 35C28.9882 35.0651 29.6393 35.0651 29.8997 35C29.9323 35 29.9486 35 29.9486 35C29.9811 34.9674 30.0137 34.9512 30.0462 34.9512C30.3392 34.3978 30.5671 33.763 30.7298 33.0468C30.8926 32.3306 31.0391 31.5982 31.1693 30.8494C31.3321 30.0682 31.4786 29.3357 31.6088 28.6521C31.7715 27.9359 31.9669 27.3174 32.1947 26.7966C32.5528 26.7966 32.8295 26.7966 33.0248 26.7966C33.2527 26.764 33.448 26.7477 33.6108 26.7477C33.8061 26.7477 34.0177 26.7477 34.2456 26.7477C34.4735 26.7477 34.799 26.7803 35.2222 26.8454C35.4501 27.3337 35.6617 27.9196 35.857 28.6033C36.0523 29.2869 36.2314 30.0031 36.3941 30.7518C36.5894 31.5005 36.7685 32.233 36.9312 32.9491C37.1266 33.6653 37.3219 34.2838 37.5172 34.8047H37.566C38.6077 35.0326 39.7146 35.1628 40.8865 35.1953C42.0584 35.2604 43.1327 35.1953 44.1093 35V34.9512L40.447 17.8607ZM35.4663 21.0346C34.8478 21.0346 34.2293 21.0509 33.6108 21.0834C32.9923 21.0834 32.4063 21.0672 31.8529 21.0346C32.0808 19.3744 32.2761 17.8281 32.4389 16.3958C32.6342 14.9634 32.797 13.7752 32.9272 12.8312C33.09 11.8871 33.2527 11.2686 33.4155 10.9756C33.6108 10.6501 33.7899 10.764 33.9526 11.3174C34.1479 11.8709 34.3595 12.9288 34.5874 14.4914C34.8478 16.054 35.1408 18.235 35.4663 21.0346ZM64.4325 1.60028C63.8791 1.50262 63.2931 1.45379 62.6746 1.45379C62.0886 1.42123 61.4864 1.40496 60.8679 1.40496C60.2819 1.40496 59.696 1.40496 59.11 1.40496C58.524 1.3724 57.9543 1.29102 57.4009 1.16081C57.3358 1.16081 57.3033 1.19336 57.3033 1.25847C56.9452 2.62571 56.6359 4.09061 56.3755 5.65317C56.1151 7.21573 55.8384 8.92478 55.5454 10.7803C55.2524 12.6359 54.9106 14.6704 54.52 16.8841C54.1293 19.0651 53.6248 21.4741 53.0062 24.1109C52.3552 21.4741 51.8669 18.9187 51.5413 16.4446C51.2484 13.9705 51.0368 11.7081 50.9066 9.65723C50.7763 7.60637 50.695 5.84849 50.6624 4.38359C50.6298 2.91869 50.5485 1.8607 50.4183 1.20964C50.1578 1.14453 49.6858 1.0957 49.0022 1.06315C48.3186 1.03059 47.6024 1.03059 46.8537 1.06315C46.1049 1.06315 45.405 1.11198 44.754 1.20964C44.1029 1.3073 43.6797 1.47006 43.4844 1.69794V1.74677C43.9401 7.37849 44.64 12.9777 45.5841 18.5443C46.5281 24.0784 47.7326 29.4822 49.1975 34.7558C49.7184 34.9186 50.3369 35.0163 51.053 35.0488C51.8018 35.1139 52.5342 35.1465 53.2504 35.1465C53.934 35.1465 54.5525 35.1139 55.1059 35.0488C55.6593 34.9837 56.0663 34.9512 56.3267 34.9512C57.108 32.119 57.8567 29.3357 58.5729 26.6012C59.289 23.8342 59.9889 21.0834 60.6726 18.349C61.3562 15.6145 62.0072 12.8637 62.6258 10.0967C63.2768 7.32966 63.8791 4.49752 64.4325 1.60028ZM86.8176 28.3591C84.604 28.4242 82.4554 28.4079 80.372 28.3103C78.2886 28.1801 76.1726 28.115 74.0241 28.115L73.9753 28.0661C73.9102 27.2849 73.8451 26.3083 73.78 25.1363C73.7474 23.9644 73.8125 22.9064 73.9753 21.9624C74.1381 21.8322 74.4473 21.7508 74.9031 21.7182C75.3588 21.6857 75.8634 21.6694 76.4168 21.6694C77.0028 21.6694 77.605 21.6694 78.2235 21.6694C78.842 21.6369 79.3954 21.5555 79.8837 21.4253C79.8512 20.2208 79.8674 19.0651 79.9326 17.9583C79.9977 16.8515 79.9488 15.7447 79.7861 14.6379V14.5891C78.7769 14.5565 77.7678 14.5402 76.7586 14.5402C75.7494 14.5402 74.7566 14.5077 73.78 14.4426L73.7311 14.3937C73.5033 13.5148 73.4382 12.587 73.5358 11.6104C73.666 10.6013 73.7149 9.62467 73.6823 8.68063L73.7311 8.6318H73.8776C74.9519 8.53414 76.0262 8.48531 77.1004 8.48531C78.1747 8.48531 79.2489 8.50158 80.3232 8.53414C81.3975 8.53414 82.4554 8.51786 83.4971 8.48531C84.5714 8.4202 85.6294 8.27371 86.6711 8.04584V7.99701C86.6711 6.85764 86.7036 5.702 86.7688 4.53008C86.8664 3.35816 86.8339 2.20251 86.6711 1.06315C86.6711 1.03059 86.3456 0.99804 85.6945 0.965487C85.0434 0.932935 84.1808 0.916658 83.1065 0.916658C82.0322 0.916658 80.7952 0.932935 79.3954 0.965487C77.9956 0.99804 76.547 1.03059 75.0496 1.06315C73.5521 1.0957 72.0546 1.14453 70.5572 1.20964C69.0923 1.24219 67.725 1.29102 66.4555 1.35613C66.2927 4.15571 66.195 6.93902 66.1625 9.70606C66.1299 12.4731 66.1299 15.2401 66.1625 18.0072C66.195 20.7742 66.2439 23.5575 66.309 26.3571C66.3741 29.1241 66.4066 31.9237 66.4066 34.7558C69.5643 35.0163 72.8522 35.0977 76.2703 35C79.721 34.8698 83.1065 34.821 86.4269 34.8535C86.6874 33.8769 86.8339 32.8352 86.8664 31.7284C86.899 30.589 86.8827 29.4985 86.8176 28.4568V28.3591ZM111.352 11.0245C111.254 9.16893 110.831 7.59009 110.082 6.28796C109.334 4.98582 108.373 3.91156 107.201 3.06518C106.062 2.18624 104.744 1.53517 103.246 1.11198C101.749 0.656232 100.202 0.363252 98.6074 0.233038C97.0448 0.102824 95.466 0.119101 93.8708 0.281867C92.3083 0.444634 90.8597 0.70506 89.525 1.06315C89.6226 3.76507 89.6715 6.59721 89.6715 9.55957C89.704 12.5219 89.7203 15.468 89.7203 18.3978C89.7203 21.3276 89.7203 24.1923 89.7203 26.9919C89.7203 29.7589 89.7691 32.3306 89.8668 34.707C90.4202 34.7721 91.0713 34.821 91.82 34.8535C92.5687 34.8861 93.3174 34.9023 94.0662 34.9023C94.8474 34.8698 95.5799 34.8372 96.2635 34.8047C96.9797 34.7396 97.5656 34.6419 98.0214 34.5117C98.0539 34.5117 98.0702 34.5117 98.0702 34.5117C98.1028 34.4791 98.1353 34.4629 98.1679 34.4629V34.414C98.1028 32.0376 98.0539 30.1496 98.0214 28.7498C98.0214 27.35 98.0214 26.2432 98.0214 25.4293C98.0214 24.5829 98.0214 23.9481 98.0214 23.5249C98.0214 23.0692 98.0051 22.6135 97.9726 22.1577C99.5351 22.4181 101.065 22.353 102.563 21.9624C104.06 21.5392 105.427 20.8719 106.664 19.9604C107.901 19.0489 108.927 17.9421 109.741 16.6399C110.587 15.3378 111.108 13.9054 111.303 12.3429C111.336 12.1476 111.352 11.9522 111.352 11.7569C111.352 11.529 111.352 11.3012 111.352 11.0733V11.0245ZM102.807 8.97361C103.23 9.23403 103.555 9.55957 103.783 9.95021C104.044 10.3408 104.207 10.764 104.272 11.2198C104.369 11.6755 104.353 12.1313 104.223 12.587C104.125 13.0428 103.946 13.4497 103.686 13.8078C103.295 14.1984 102.823 14.4914 102.27 14.6867C101.749 14.8495 101.195 14.9634 100.609 15.0285C100.056 15.0936 99.4863 15.1425 98.9003 15.175C98.3144 15.175 97.761 15.1913 97.2401 15.2238H97.0936C96.9309 14.7355 96.8169 14.1984 96.7518 13.6125C96.7193 12.9939 96.6867 12.3592 96.6542 11.7081C96.6542 11.057 96.6542 10.406 96.6542 9.75489C96.6867 9.10382 96.6867 8.48531 96.6542 7.89935C96.6867 7.86679 96.7355 7.85052 96.8006 7.85052C97.8423 7.59009 98.9003 7.55754 99.9746 7.75286C101.049 7.91562 101.993 8.32254 102.807 8.97361ZM134.599 28.3591C132.385 28.4242 130.236 28.4079 128.153 28.3103C126.07 28.1801 123.954 28.115 121.805 28.115L121.756 28.0661C121.691 27.2849 121.626 26.3083 121.561 25.1363C121.528 23.9644 121.593 22.9064 121.756 21.9624C121.919 21.8322 122.228 21.7508 122.684 21.7182C123.14 21.6857 123.644 21.6694 124.198 21.6694C124.784 21.6694 125.386 21.6694 126.004 21.6694C126.623 21.6369 127.176 21.5555 127.665 21.4253C127.632 20.2208 127.648 19.0651 127.713 17.9583C127.779 16.8515 127.73 15.7447 127.567 14.6379V14.5891C126.558 14.5565 125.549 14.5402 124.54 14.5402C123.53 14.5402 122.537 14.5077 121.561 14.4426L121.512 14.3937C121.284 13.5148 121.219 12.587 121.317 11.6104C121.447 10.6013 121.496 9.62467 121.463 8.68063L121.512 8.6318H121.659C122.733 8.53414 123.807 8.48531 124.881 8.48531C125.956 8.48531 127.03 8.50158 128.104 8.53414C129.178 8.53414 130.236 8.51786 131.278 8.48531C132.352 8.4202 133.41 8.27371 134.452 8.04584V7.99701C134.452 6.85764 134.485 5.702 134.55 4.53008C134.647 3.35816 134.615 2.20251 134.452 1.06315C134.452 1.03059 134.126 0.99804 133.475 0.965487C132.824 0.932935 131.962 0.916658 130.887 0.916658C129.813 0.916658 128.576 0.932935 127.176 0.965487C125.777 0.99804 124.328 1.03059 122.83 1.06315C121.333 1.0957 119.836 1.14453 118.338 1.20964C116.873 1.24219 115.506 1.29102 114.236 1.35613C114.074 4.15571 113.976 6.93902 113.943 9.70606C113.911 12.4731 113.911 15.2401 113.943 18.0072C113.976 20.7742 114.025 23.5575 114.09 26.3571C114.155 29.1241 114.188 31.9237 114.188 34.7558C117.345 35.0163 120.633 35.0977 124.051 35C127.502 34.8698 130.887 34.821 134.208 34.8535C134.468 33.8769 134.615 32.8352 134.647 31.7284C134.68 30.589 134.664 29.4985 134.599 28.4568V28.3591ZM156.594 1.06315C153.241 0.70506 149.79 0.542294 146.242 0.574847C142.726 0.574847 139.308 0.591123 135.987 0.623676C135.987 0.656231 135.987 0.672508 135.987 0.672508C136.02 0.672508 136.036 0.688785 136.036 0.721338C135.971 1.50262 135.939 2.31645 135.939 3.16284C135.939 4.00922 135.939 4.80678 135.939 5.55551C135.971 6.27168 136.004 6.89019 136.036 7.41105C136.101 7.9319 136.167 8.25743 136.232 8.38765C136.427 8.45275 136.769 8.48531 137.257 8.48531C137.745 8.48531 138.283 8.50158 138.868 8.53414C139.454 8.53414 140.04 8.56669 140.626 8.6318C141.212 8.66435 141.701 8.77829 142.091 8.97361L142.14 9.02244C142.335 13.5799 142.449 17.47 142.482 20.6928C142.547 23.9156 142.563 26.5687 142.531 28.6521C142.531 30.703 142.514 32.2492 142.482 33.2909C142.449 34.3327 142.449 34.9186 142.482 35.0488C143.068 34.9512 143.703 34.9023 144.386 34.9023C145.07 34.9023 145.753 34.9023 146.437 34.9023C147.153 34.9023 147.853 34.9023 148.537 34.9023C149.253 34.8698 149.904 34.8047 150.49 34.707V34.6582V34.6094C150.425 31.061 150.376 27.9848 150.344 25.3805C150.311 22.7437 150.278 20.4975 150.246 18.6419C150.213 16.7539 150.181 15.2238 150.148 14.0519C150.148 12.8475 150.148 11.8871 150.148 11.171C150.148 10.4222 150.148 9.8851 150.148 9.55957C150.181 9.20148 150.213 8.94106 150.246 8.77829C150.246 8.74573 150.246 8.72946 150.246 8.72946C150.278 8.6969 150.295 8.66435 150.295 8.6318H150.344H150.441C151.971 8.56669 153.192 8.51786 154.103 8.48531C155.015 8.45275 155.78 8.50158 156.398 8.6318C156.561 7.45988 156.643 6.17402 156.643 4.77423C156.675 3.37443 156.659 2.13741 156.594 1.06315ZM179.757 11.8546C180.212 9.41308 180.017 7.39477 179.171 5.79966C178.324 4.20454 177.12 3.00007 175.557 2.18624C174.776 1.82815 173.913 1.53517 172.969 1.3073C172.058 1.07942 171.114 0.949211 170.137 0.916658C169.193 0.85155 168.249 0.884103 167.305 1.01432C166.361 1.11198 165.498 1.32357 164.717 1.64911C163.155 2.30017 161.82 3.29305 160.713 4.62774C159.639 5.96242 158.906 7.4436 158.516 9.07127C158.125 10.6989 158.141 12.3754 158.564 14.1008C159.02 15.8261 159.997 17.4049 161.494 18.8373C161.95 19.2279 162.455 19.5697 163.008 19.8627C163.561 20.1557 164.164 20.3673 164.815 20.4975C165.498 20.6277 166.231 20.7742 167.012 20.937C167.793 21.0672 168.51 21.2788 169.161 21.5717C169.844 21.8647 170.43 22.2554 170.918 22.7437C171.407 23.1994 171.7 23.8179 171.797 24.5992C171.993 25.7386 171.765 26.585 171.114 27.1384C170.495 27.6918 169.747 27.9848 168.868 28.0173C168.021 28.0173 167.207 27.7569 166.426 27.236C165.677 26.7152 165.27 25.9339 165.205 24.8922C164.099 24.9247 162.862 24.9085 161.494 24.8434C160.127 24.7457 158.874 24.7783 157.734 24.941V25.0875V25.234C157.637 26.7966 157.913 28.1964 158.564 29.4334C159.216 30.6379 160.094 31.6633 161.201 32.5097C162.308 33.3561 163.561 34.0234 164.961 34.5117C166.394 34.9674 167.826 35.2116 169.258 35.2442C170.267 35.2767 171.244 35.1953 172.188 35C173.165 34.7721 174.06 34.4303 174.874 33.9746C175.72 33.5188 176.469 32.9329 177.12 32.2167C177.771 31.5005 178.292 30.6379 178.682 29.6287C179.073 28.7823 179.35 27.9034 179.513 26.9919C179.708 26.0478 179.773 25.1201 179.708 24.2086C179.675 23.2971 179.513 22.4181 179.22 21.5717C178.927 20.6928 178.487 19.879 177.901 19.1302C176.957 17.7305 175.736 16.5748 174.239 15.6633C172.774 14.7518 171.179 14.1984 169.454 14.0031C168.77 13.9054 168.135 13.7264 167.549 13.466C166.963 13.2055 166.54 12.6847 166.28 11.9034C166.247 11.6755 166.215 11.4639 166.182 11.2686C166.182 11.0407 166.215 10.8129 166.28 10.585C166.41 9.67351 166.833 9.05499 167.549 8.72946C168.298 8.40392 169.063 8.32254 169.844 8.48531C170.626 8.64807 171.293 9.02244 171.846 9.6084C172.4 10.1944 172.579 10.9268 172.383 11.8057C173.523 12.1313 174.744 12.2778 176.046 12.2452C177.348 12.1801 178.569 12.0499 179.708 11.8546H179.757Z" fill="#333333"/>
</svg>
